Genre:Action | Adventure | Crime
Language:English 
http://uk.imdb.com/title/tt1074638/
Source:ILG Thanks
Encoder:Tony

Format : AVI
Format/Info : Audio Video Interleave
File size : 1.41 GiB
Duration : 2h 17mn
Overall bit rate mode : Variable
Overall bit rate : 1 468 Kbps

Video
ID : 0
Format : MPEG-4 Visual
Format profile : Simple@L5
Format settings, BVOP : No
Format settings, QPel : No
Format settings, GMC : No warppoints
Format settings, Matrix : Default (H.263)
Codec ID : XVID
Codec ID/Hint : XviD
Duration : 2h 17mn
Bit rate : 1 332 Kbps
Width : 640 pixels
Height : 272 pixels
Display aspect ratio : 2.35:1
Frame rate : 25.000 fps
Color space : YUV
Chroma subsampling : 4:2:0
Bit depth : 8 bits
Scan type : Progressive
Compression mode : Lossy
Bits/(Pixel*Frame) : 0.306
Stream size : 1.28 GiB (91%)
Writing library : XviD 64

Audio
ID : 1
Format : MPEG Audio
Format version : Version 1
Format profile : Layer 3
Mode : Joint stereo
Mode extension : MS Stereo
Codec ID : 55
Codec ID/Hint : MP3
Duration : 2h 17mn
Bit rate mode : Variable
Bit rate : 120 Kbps
Channel(s) : 2 channels
Sampling rate : 48.0 KHz
Compression mode : Lossy
Stream size : 121 MiB (8%)
Alignment : Aligned on interleaves
Interleave, duration : 24 ms (0.60 video frame)
Interleave, preload duration : 514 ms
Writing library : L3.99r


Plot:
Bond's loyalty to M is tested as her past comes back to haunt her. As MI6 comes under attack, 007 must track down and destroy the threat, no matter how personal the cost.
 
http://lookpic.com/O/i2/1593/kaw0LnkO.png 
http://lookpic.com/O/i2/1180/4FDFz3Le.png# 
http://lookpic.com/O/i2/710/cjd4N1yU.png 
http://lookpic.com/O/i2/62/ZOxJCkc6.png 
http://lookpic.com/O/i2/513/p6eRcuvX.png